ply
format ascii 1.0
comment convert from other format
element vertex 382
property float x
property float y
property float z
element face 760
property list uchar int vertex_indices
end_header
0.000000 0.000000 1.000000
0.156434 0.000000 0.987688
0.148778 0.048341 0.987688
0.126558 0.091950 0.987688
0.091950 0.126558 0.987688
0.048341 0.148778 0.987688
-0.000000 0.156434 0.987688
-0.048341 0.148778 0.987688
-0.091950 0.126558 0.987688
-0.126558 0.091950 0.987688
-0.148778 0.048341 0.987688
-0.156434 -0.000000 0.987688
-0.148778 -0.048341 0.987688
-0.126558 -0.091950 0.987688
-0.091950 -0.126558 0.987688
-0.048341 -0.148778 0.987688
0.000000 -0.156434 0.987688
0.048341 -0.148778 0.987688
0.091950 -0.126558 0.987688
0.126558 -0.091950 0.987688
0.148778 -0.048341 0.987688
0.309017 0.000000 0.951057
0.293893 0.095492 0.951057
0.250000 0.181636 0.951057
0.181636 0.250000 0.951057
0.095491 0.293893 0.951057
-0.000000 0.309017 0.951057
-0.095492 0.293893 0.951057
-0.181636 0.250000 0.951057
-0.250000 0.181636 0.951057
-0.293893 0.095492 0.951057
-0.309017 -0.000000 0.951057
-0.293893 -0.095492 0.951057
-0.250000 -0.181636 0.951057
-0.181636 -0.250000 0.951057
-0.095491 -0.293893 0.951057
0.000000 -0.309017 0.951057
0.095492 -0.293893 0.951057
0.181636 -0.250000 0.951057
0.250000 -0.181636 0.951057
0.293893 -0.095491 0.951057
0.453991 0.000000 0.891007
0.431771 0.140291 0.891007
0.367286 0.266849 0.891007
0.266849 0.367286 0.891007
0.140291 0.431771 0.891007
-0.000000 0.453991 0.891007
-0.140291 0.431771 0.891007
-0.266849 0.367286 0.891007
-0.367286 0.266849 0.891007
-0.431771 0.140291 0.891007
-0.453991 -0.000000 0.891007
-0.431771 -0.140291 0.891007
-0.367286 -0.266849 0.891007
-0.266849 -0.367286 0.891007
-0.140291 -0.431771 0.891007
0.000000 -0.453991 0.891007
0.140291 -0.431771 0.891007
0.266849 -0.367286 0.891007
0.367286 -0.266849 0.891007
0.431771 -0.140291 0.891007
0.587785 0.000000 0.809017
0.559017 0.181636 0.809017
0.475528 0.345491 0.809017
0.345491 0.475528 0.809017
0.181636 0.559017 0.809017
-0.000000 0.587785 0.809017
-0.181636 0.559017 0.809017
-0.345492 0.475528 0.809017
-0.475528 0.345491 0.809017
-0.559017 0.181636 0.809017
-0.587785 -0.000000 0.809017
-0.559017 -0.181636 0.809017
-0.475528 -0.345492 0.809017
-0.345491 -0.475528 0.809017
-0.181635 -0.559017 0.809017
0.000000 -0.587785 0.809017
0.181636 -0.559017 0.809017
0.345492 -0.475528 0.809017
0.475528 -0.345492 0.809017
0.559017 -0.181636 0.809017
0.707107 0.000000 0.707107
0.672499 0.218508 0.707107
0.572061 0.415627 0.707107
0.415627 0.572061 0.707107
0.218508 0.672499 0.707107
-0.000000 0.707107 0.707107
-0.218508 0.672498 0.707107
-0.415627 0.572061 0.707107
-0.572061 0.415627 0.707107
-0.672498 0.218508 0.707107
-0.707107 -0.000000 0.707107
-0.672498 -0.218508 0.707107
-0.572061 -0.415627 0.707107
-0.415627 -0.572061 0.707107
-0.218508 -0.672499 0.707107
0.000000 -0.707107 0.707107
0.218508 -0.672498 0.707107
0.415627 -0.572061 0.707107
0.572061 -0.415627 0.707107
0.672499 -0.218508 0.707107
0.809017 0.000000 0.587785
0.769421 0.250000 0.587785
0.654509 0.475528 0.587785
0.475528 0.654509 0.587785
0.250000 0.769421 0.587785
-0.000000 0.809017 0.587785
-0.250000 0.769421 0.587785
-0.475528 0.654508 0.587785
-0.654509 0.475528 0.587785
-0.769421 0.250000 0.587785
-0.809017 -0.000000 0.587785
-0.769421 -0.250000 0.587785
-0.654508 -0.475528 0.587785
-0.475528 -0.654509 0.587785
-0.250000 -0.769421 0.587785
0.000000 -0.809017 0.587785
0.250000 -0.769421 0.587785
0.475528 -0.654508 0.587785
0.654508 -0.475528 0.587785
0.769421 -0.250000 0.587785
0.891007 0.000000 0.453990
0.847398 0.275336 0.453990
0.720840 0.523721 0.453990
0.523721 0.720840 0.453990
0.275336 0.847398 0.453990
-0.000000 0.891007 0.453990
-0.275336 0.847398 0.453990
-0.523721 0.720839 0.453990
-0.720840 0.523720 0.453990
-0.847398 0.275336 0.453990
-0.891007 -0.000000 0.453990
-0.847398 -0.275336 0.453990
-0.720839 -0.523721 0.453990
-0.523720 -0.720840 0.453990
-0.275336 -0.847398 0.453990
0.000000 -0.891007 0.453990
0.275336 -0.847398 0.453990
0.523721 -0.720839 0.453990
0.720839 -0.523721 0.453990
0.847398 -0.275336 0.453990
0.951057 0.000000 0.309017
0.904509 0.293893 0.309017
0.769421 0.559017 0.309017
0.559017 0.769421 0.309017
0.293893 0.904509 0.309017
-0.000000 0.951057 0.309017
-0.293893 0.904508 0.309017
-0.559017 0.769421 0.309017
-0.769421 0.559017 0.309017
-0.904508 0.293893 0.309017
-0.951057 -0.000000 0.309017
-0.904508 -0.293893 0.309017
-0.769421 -0.559017 0.309017
-0.559017 -0.769421 0.309017
-0.293892 -0.904509 0.309017
0.000000 -0.951057 0.309017
0.293893 -0.904508 0.309017
0.559017 -0.769421 0.309017
0.769421 -0.559017 0.309017
0.904509 -0.293893 0.309017
0.987688 0.000000 0.156434
0.939348 0.305212 0.156434
0.799057 0.580549 0.156434
0.580549 0.799057 0.156434
0.305212 0.939348 0.156434
-0.000000 0.987688 0.156434
-0.305213 0.939347 0.156434
-0.580549 0.799057 0.156434
-0.799057 0.580549 0.156434
-0.939347 0.305213 0.156434
-0.987688 -0.000000 0.156434
-0.939347 -0.305213 0.156434
-0.799057 -0.580549 0.156434
-0.580548 -0.799057 0.156434
-0.305212 -0.939348 0.156434
0.000000 -0.987688 0.156434
0.305213 -0.939347 0.156434
0.580549 -0.799057 0.156434
0.799057 -0.580549 0.156434
0.939348 -0.305212 0.156434
1.000000 0.000000 -0.000000
0.951057 0.309017 -0.000000
0.809017 0.587785 -0.000000
0.587785 0.809017 -0.000000
0.309017 0.951057 -0.000000
-0.000000 1.000000 -0.000000
-0.309017 0.951056 -0.000000
-0.587785 0.809017 -0.000000
-0.809017 0.587785 -0.000000
-0.951056 0.309017 -0.000000
-1.000000 -0.000000 -0.000000
-0.951056 -0.309017 -0.000000
-0.809017 -0.587785 -0.000000
-0.587785 -0.809017 -0.000000
-0.309017 -0.951057 -0.000000
0.000000 -1.000000 -0.000000
0.309017 -0.951056 -0.000000
0.587785 -0.809017 -0.000000
0.809017 -0.587785 -0.000000
0.951057 -0.309017 -0.000000
0.987688 0.000000 -0.156435
0.939347 0.305212 -0.156435
0.799057 0.580549 -0.156435
0.580549 0.799057 -0.156435
0.305212 0.939347 -0.156435
-0.000000 0.987688 -0.156435
-0.305212 0.939347 -0.156435
-0.580549 0.799057 -0.156435
-0.799057 0.580549 -0.156435
-0.939347 0.305212 -0.156435
-0.987688 -0.000000 -0.156435
-0.939347 -0.305213 -0.156435
-0.799057 -0.580549 -0.156435
-0.580548 -0.799057 -0.156435
-0.305212 -0.939348 -0.156435
0.000000 -0.987688 -0.156435
0.305213 -0.939347 -0.156435
0.580549 -0.799056 -0.156435
0.799057 -0.580549 -0.156435
0.939347 -0.305212 -0.156435
0.951056 0.000000 -0.309017
0.904508 0.293893 -0.309017
0.769421 0.559017 -0.309017
0.559017 0.769421 -0.309017
0.293893 0.904508 -0.309017
-0.000000 0.951056 -0.309017
-0.293893 0.904508 -0.309017
-0.559017 0.769421 -0.309017
-0.769421 0.559017 -0.309017
-0.904508 0.293893 -0.309017
-0.951056 -0.000000 -0.309017
-0.904508 -0.293893 -0.309017
-0.769421 -0.559017 -0.309017
-0.559017 -0.769421 -0.309017
-0.293892 -0.904509 -0.309017
0.000000 -0.951056 -0.309017
0.293893 -0.904508 -0.309017
0.559017 -0.769421 -0.309017
0.769421 -0.559017 -0.309017
0.904508 -0.293893 -0.309017
0.891006 0.000000 -0.453991
0.847398 0.275336 -0.453991
0.720839 0.523720 -0.453991
0.523720 0.720839 -0.453991
0.275336 0.847398 -0.453991
-0.000000 0.891006 -0.453991
-0.275336 0.847398 -0.453991
-0.523721 0.720839 -0.453991
-0.720839 0.523720 -0.453991
-0.847398 0.275336 -0.453991
-0.891006 -0.000000 -0.453991
-0.847397 -0.275336 -0.453991
-0.720839 -0.523721 -0.453991
-0.523720 -0.720840 -0.453991
-0.275336 -0.847398 -0.453991
0.000000 -0.891006 -0.453991
0.275336 -0.847398 -0.453991
0.523721 -0.720839 -0.453991
0.720839 -0.523721 -0.453991
0.847398 -0.275336 -0.453991
0.809017 0.000000 -0.587785
0.769421 0.250000 -0.587785
0.654508 0.475528 -0.587785
0.475528 0.654508 -0.587785
0.250000 0.769421 -0.587785
-0.000000 0.809017 -0.587785
-0.250000 0.769421 -0.587785
-0.475528 0.654508 -0.587785
-0.654508 0.475528 -0.587785
-0.769421 0.250000 -0.587785
-0.809017 -0.000000 -0.587785
-0.769421 -0.250000 -0.587785
-0.654508 -0.475528 -0.587785
-0.475528 -0.654509 -0.587785
-0.250000 -0.769421 -0.587785
0.000000 -0.809017 -0.587785
0.250000 -0.769421 -0.587785
0.475528 -0.654508 -0.587785
0.654508 -0.475528 -0.587785
0.769421 -0.250000 -0.587785
0.707107 0.000000 -0.707107
0.672499 0.218508 -0.707107
0.572061 0.415627 -0.707107
0.415627 0.572061 -0.707107
0.218508 0.672499 -0.707107
-0.000000 0.707107 -0.707107
-0.218508 0.672498 -0.707107
-0.415627 0.572061 -0.707107
-0.572061 0.415627 -0.707107
-0.672498 0.218508 -0.707107
-0.707107 -0.000000 -0.707107
-0.672498 -0.218508 -0.707107
-0.572061 -0.415627 -0.707107
-0.415627 -0.572061 -0.707107
-0.218508 -0.672499 -0.707107
0.000000 -0.707107 -0.707107
0.218508 -0.672498 -0.707107
0.415627 -0.572061 -0.707107
0.572061 -0.415627 -0.707107
0.672499 -0.218508 -0.707107
0.587785 0.000000 -0.809017
0.559017 0.181636 -0.809017
0.475528 0.345491 -0.809017
0.345491 0.475528 -0.809017
0.181636 0.559017 -0.809017
-0.000000 0.587785 -0.809017
-0.181636 0.559017 -0.809017
-0.345492 0.475528 -0.809017
-0.475528 0.345491 -0.809017
-0.559017 0.181636 -0.809017
-0.587785 -0.000000 -0.809017
-0.559017 -0.181636 -0.809017
-0.475528 -0.345492 -0.809017
-0.345491 -0.475528 -0.809017
-0.181635 -0.559017 -0.809017
0.000000 -0.587785 -0.809017
0.181636 -0.559017 -0.809017
0.345492 -0.475528 -0.809017
0.475528 -0.345491 -0.809017
0.559017 -0.181636 -0.809017
0.453990 0.000000 -0.891007
0.431771 0.140291 -0.891007
0.367286 0.266849 -0.891007
0.266849 0.367286 -0.891007
0.140291 0.431771 -0.891007
-0.000000 0.453990 -0.891007
-0.140291 0.431770 -0.891007
-0.266849 0.367286 -0.891007
-0.367286 0.266849 -0.891007
-0.431770 0.140291 -0.891007
-0.453990 -0.000000 -0.891007
-0.431770 -0.140291 -0.891007
-0.367286 -0.266849 -0.891007
-0.266849 -0.367286 -0.891007
-0.140291 -0.431771 -0.891007
0.000000 -0.453990 -0.891007
0.140291 -0.431770 -0.891007
0.266849 -0.367286 -0.891007
0.367286 -0.266849 -0.891007
0.431771 -0.140291 -0.891007
0.309017 0.000000 -0.951056
0.293893 0.095492 -0.951056
0.250000 0.181636 -0.951056
0.181636 0.250000 -0.951056
0.095492 0.293893 -0.951056
-0.000000 0.309017 -0.951056
-0.095492 0.293893 -0.951056
-0.181636 0.250000 -0.951056
-0.250000 0.181636 -0.951056
-0.293893 0.095492 -0.951056
-0.309017 -0.000000 -0.951056
-0.293893 -0.095492 -0.951056
-0.250000 -0.181636 -0.951056
-0.181636 -0.250000 -0.951056
-0.095491 -0.293893 -0.951056
0.000000 -0.309017 -0.951056
0.095492 -0.293893 -0.951056
0.181636 -0.250000 -0.951056
0.250000 -0.181636 -0.951056
0.293893 -0.095491 -0.951056
0.156434 0.000000 -0.987688
0.148778 0.048341 -0.987688
0.126558 0.091950 -0.987688
0.091950 0.126558 -0.987688
0.048341 0.148778 -0.987688
-0.000000 0.156434 -0.987688
-0.048341 0.148778 -0.987688
-0.091950 0.126558 -0.987688
-0.126558 0.091950 -0.987688
-0.148778 0.048341 -0.987688
-0.156434 -0.000000 -0.987688
-0.148778 -0.048341 -0.987688
-0.126558 -0.091950 -0.987688
-0.091950 -0.126558 -0.987688
-0.048341 -0.148778 -0.987688
0.000000 -0.156434 -0.987688
0.048341 -0.148778 -0.987688
0.091950 -0.126558 -0.987688
0.126558 -0.091950 -0.987688
0.148778 -0.048341 -0.987688
0.000000 0.000000 -1.000000
3 0 1 2
3 0 2 3
3 0 3 4
3 0 4 5
3 0 5 6
3 0 6 7
3 0 7 8
3 0 8 9
3 0 9 10
3 0 10 11
3 0 11 12
3 0 12 13
3 0 13 14
3 0 14 15
3 0 15 16
3 0 16 17
3 0 17 18
3 0 18 19
3 0 19 20
3 0 20 1
3 1 21 22
3 22 2 1
3 2 22 23
3 23 3 2
3 3 23 24
3 24 4 3
3 4 24 25
3 25 5 4
3 5 25 26
3 26 6 5
3 6 26 27
3 27 7 6
3 7 27 28
3 28 8 7
3 8 28 29
3 29 9 8
3 9 29 30
3 30 10 9
3 10 30 31
3 31 11 10
3 11 31 32
3 32 12 11
3 12 32 33
3 33 13 12
3 13 33 34
3 34 14 13
3 14 34 35
3 35 15 14
3 15 35 36
3 36 16 15
3 16 36 37
3 37 17 16
3 17 37 38
3 38 18 17
3 18 38 39
3 39 19 18
3 19 39 40
3 40 20 19
3 20 40 21
3 21 1 20
3 21 41 42
3 42 22 21
3 22 42 43
3 43 23 22
3 23 43 44
3 44 24 23
3 24 44 45
3 45 25 24
3 25 45 46
3 46 26 25
3 26 46 47
3 47 27 26
3 27 47 48
3 48 28 27
3 28 48 49
3 49 29 28
3 29 49 50
3 50 30 29
3 30 50 51
3 51 31 30
3 31 51 52
3 52 32 31
3 32 52 53
3 53 33 32
3 33 53 54
3 54 34 33
3 34 54 55
3 55 35 34
3 35 55 56
3 56 36 35
3 36 56 57
3 57 37 36
3 37 57 58
3 58 38 37
3 38 58 59
3 59 39 38
3 39 59 60
3 60 40 39
3 40 60 41
3 41 21 40
3 41 61 62
3 62 42 41
3 42 62 63
3 63 43 42
3 43 63 64
3 64 44 43
3 44 64 65
3 65 45 44
3 45 65 66
3 66 46 45
3 46 66 67
3 67 47 46
3 47 67 68
3 68 48 47
3 48 68 69
3 69 49 48
3 49 69 70
3 70 50 49
3 50 70 71
3 71 51 50
3 51 71 72
3 72 52 51
3 52 72 73
3 73 53 52
3 53 73 74
3 74 54 53
3 54 74 75
3 75 55 54
3 55 75 76
3 76 56 55
3 56 76 77
3 77 57 56
3 57 77 78
3 78 58 57
3 58 78 79
3 79 59 58
3 59 79 80
3 80 60 59
3 60 80 61
3 61 41 60
3 61 81 82
3 82 62 61
3 62 82 83
3 83 63 62
3 63 83 84
3 84 64 63
3 64 84 85
3 85 65 64
3 65 85 86
3 86 66 65
3 66 86 87
3 87 67 66
3 67 87 88
3 88 68 67
3 68 88 89
3 89 69 68
3 69 89 90
3 90 70 69
3 70 90 91
3 91 71 70
3 71 91 92
3 92 72 71
3 72 92 93
3 93 73 72
3 73 93 94
3 94 74 73
3 74 94 95
3 95 75 74
3 75 95 96
3 96 76 75
3 76 96 97
3 97 77 76
3 77 97 98
3 98 78 77
3 78 98 99
3 99 79 78
3 79 99 100
3 100 80 79
3 80 100 81
3 81 61 80
3 81 101 102
3 102 82 81
3 82 102 103
3 103 83 82
3 83 103 104
3 104 84 83
3 84 104 105
3 105 85 84
3 85 105 106
3 106 86 85
3 86 106 107
3 107 87 86
3 87 107 108
3 108 88 87
3 88 108 109
3 109 89 88
3 89 109 110
3 110 90 89
3 90 110 111
3 111 91 90
3 91 111 112
3 112 92 91
3 92 112 113
3 113 93 92
3 93 113 114
3 114 94 93
3 94 114 115
3 115 95 94
3 95 115 116
3 116 96 95
3 96 116 117
3 117 97 96
3 97 117 118
3 118 98 97
3 98 118 119
3 119 99 98
3 99 119 120
3 120 100 99
3 100 120 101
3 101 81 100
3 101 121 122
3 122 102 101
3 102 122 123
3 123 103 102
3 103 123 124
3 124 104 103
3 104 124 125
3 125 105 104
3 105 125 126
3 126 106 105
3 106 126 127
3 127 107 106
3 107 127 128
3 128 108 107
3 108 128 129
3 129 109 108
3 109 129 130
3 130 110 109
3 110 130 131
3 131 111 110
3 111 131 132
3 132 112 111
3 112 132 133
3 133 113 112
3 113 133 134
3 134 114 113
3 114 134 135
3 135 115 114
3 115 135 136
3 136 116 115
3 116 136 137
3 137 117 116
3 117 137 138
3 138 118 117
3 118 138 139
3 139 119 118
3 119 139 140
3 140 120 119
3 120 140 121
3 121 101 120
3 121 141 142
3 142 122 121
3 122 142 143
3 143 123 122
3 123 143 144
3 144 124 123
3 124 144 145
3 145 125 124
3 125 145 146
3 146 126 125
3 126 146 147
3 147 127 126
3 127 147 148
3 148 128 127
3 128 148 149
3 149 129 128
3 129 149 150
3 150 130 129
3 130 150 151
3 151 131 130
3 131 151 152
3 152 132 131
3 132 152 153
3 153 133 132
3 133 153 154
3 154 134 133
3 134 154 155
3 155 135 134
3 135 155 156
3 156 136 135
3 136 156 157
3 157 137 136
3 137 157 158
3 158 138 137
3 138 158 159
3 159 139 138
3 139 159 160
3 160 140 139
3 140 160 141
3 141 121 140
3 141 161 162
3 162 142 141
3 142 162 163
3 163 143 142
3 143 163 164
3 164 144 143
3 144 164 165
3 165 145 144
3 145 165 166
3 166 146 145
3 146 166 167
3 167 147 146
3 147 167 168
3 168 148 147
3 148 168 169
3 169 149 148
3 149 169 170
3 170 150 149
3 150 170 171
3 171 151 150
3 151 171 172
3 172 152 151
3 152 172 173
3 173 153 152
3 153 173 174
3 174 154 153
3 154 174 175
3 175 155 154
3 155 175 176
3 176 156 155
3 156 176 177
3 177 157 156
3 157 177 178
3 178 158 157
3 158 178 179
3 179 159 158
3 159 179 180
3 180 160 159
3 160 180 161
3 161 141 160
3 161 181 182
3 182 162 161
3 162 182 183
3 183 163 162
3 163 183 184
3 184 164 163
3 164 184 185
3 185 165 164
3 165 185 186
3 186 166 165
3 166 186 187
3 187 167 166
3 167 187 188
3 188 168 167
3 168 188 189
3 189 169 168
3 169 189 190
3 190 170 169
3 170 190 191
3 191 171 170
3 171 191 192
3 192 172 171
3 172 192 193
3 193 173 172
3 173 193 194
3 194 174 173
3 174 194 195
3 195 175 174
3 175 195 196
3 196 176 175
3 176 196 197
3 197 177 176
3 177 197 198
3 198 178 177
3 178 198 199
3 199 179 178
3 179 199 200
3 200 180 179
3 180 200 181
3 181 161 180
3 181 201 202
3 202 182 181
3 182 202 203
3 203 183 182
3 183 203 204
3 204 184 183
3 184 204 205
3 205 185 184
3 185 205 206
3 206 186 185
3 186 206 207
3 207 187 186
3 187 207 208
3 208 188 187
3 188 208 209
3 209 189 188
3 189 209 210
3 210 190 189
3 190 210 211
3 211 191 190
3 191 211 212
3 212 192 191
3 192 212 213
3 213 193 192
3 193 213 214
3 214 194 193
3 194 214 215
3 215 195 194
3 195 215 216
3 216 196 195
3 196 216 217
3 217 197 196
3 197 217 218
3 218 198 197
3 198 218 219
3 219 199 198
3 199 219 220
3 220 200 199
3 200 220 201
3 201 181 200
3 201 221 222
3 222 202 201
3 202 222 223
3 223 203 202
3 203 223 224
3 224 204 203
3 204 224 225
3 225 205 204
3 205 225 226
3 226 206 205
3 206 226 227
3 227 207 206
3 207 227 228
3 228 208 207
3 208 228 229
3 229 209 208
3 209 229 230
3 230 210 209
3 210 230 231
3 231 211 210
3 211 231 232
3 232 212 211
3 212 232 233
3 233 213 212
3 213 233 234
3 234 214 213
3 214 234 235
3 235 215 214
3 215 235 236
3 236 216 215
3 216 236 237
3 237 217 216
3 217 237 238
3 238 218 217
3 218 238 239
3 239 219 218
3 219 239 240
3 240 220 219
3 220 240 221
3 221 201 220
3 221 241 242
3 242 222 221
3 222 242 243
3 243 223 222
3 223 243 244
3 244 224 223
3 224 244 245
3 245 225 224
3 225 245 246
3 246 226 225
3 226 246 247
3 247 227 226
3 227 247 248
3 248 228 227
3 228 248 249
3 249 229 228
3 229 249 250
3 250 230 229
3 230 250 251
3 251 231 230
3 231 251 252
3 252 232 231
3 232 252 253
3 253 233 232
3 233 253 254
3 254 234 233
3 234 254 255
3 255 235 234
3 235 255 256
3 256 236 235
3 236 256 257
3 257 237 236
3 237 257 258
3 258 238 237
3 238 258 259
3 259 239 238
3 239 259 260
3 260 240 239
3 240 260 241
3 241 221 240
3 241 261 262
3 262 242 241
3 242 262 263
3 263 243 242
3 243 263 264
3 264 244 243
3 244 264 265
3 265 245 244
3 245 265 266
3 266 246 245
3 246 266 267
3 267 247 246
3 247 267 268
3 268 248 247
3 248 268 269
3 269 249 248
3 249 269 270
3 270 250 249
3 250 270 271
3 271 251 250
3 251 271 272
3 272 252 251
3 252 272 273
3 273 253 252
3 253 273 274
3 274 254 253
3 254 274 275
3 275 255 254
3 255 275 276
3 276 256 255
3 256 276 277
3 277 257 256
3 257 277 278
3 278 258 257
3 258 278 279
3 279 259 258
3 259 279 280
3 280 260 259
3 260 280 261
3 261 241 260
3 261 281 282
3 282 262 261
3 262 282 283
3 283 263 262
3 263 283 284
3 284 264 263
3 264 284 285
3 285 265 264
3 265 285 286
3 286 266 265
3 266 286 287
3 287 267 266
3 267 287 288
3 288 268 267
3 268 288 289
3 289 269 268
3 269 289 290
3 290 270 269
3 270 290 291
3 291 271 270
3 271 291 292
3 292 272 271
3 272 292 293
3 293 273 272
3 273 293 294
3 294 274 273
3 274 294 295
3 295 275 274
3 275 295 296
3 296 276 275
3 276 296 297
3 297 277 276
3 277 297 298
3 298 278 277
3 278 298 299
3 299 279 278
3 279 299 300
3 300 280 279
3 280 300 281
3 281 261 280
3 281 301 302
3 302 282 281
3 282 302 303
3 303 283 282
3 283 303 304
3 304 284 283
3 284 304 305
3 305 285 284
3 285 305 306
3 306 286 285
3 286 306 307
3 307 287 286
3 287 307 308
3 308 288 287
3 288 308 309
3 309 289 288
3 289 309 310
3 310 290 289
3 290 310 311
3 311 291 290
3 291 311 312
3 312 292 291
3 292 312 313
3 313 293 292
3 293 313 314
3 314 294 293
3 294 314 315
3 315 295 294
3 295 315 316
3 316 296 295
3 296 316 317
3 317 297 296
3 297 317 318
3 318 298 297
3 298 318 319
3 319 299 298
3 299 319 320
3 320 300 299
3 300 320 301
3 301 281 300
3 301 321 322
3 322 302 301
3 302 322 323
3 323 303 302
3 303 323 324
3 324 304 303
3 304 324 325
3 325 305 304
3 305 325 326
3 326 306 305
3 306 326 327
3 327 307 306
3 307 327 328
3 328 308 307
3 308 328 329
3 329 309 308
3 309 329 330
3 330 310 309
3 310 330 331
3 331 311 310
3 311 331 332
3 332 312 311
3 312 332 333
3 333 313 312
3 313 333 334
3 334 314 313
3 314 334 335
3 335 315 314
3 315 335 336
3 336 316 315
3 316 336 337
3 337 317 316
3 317 337 338
3 338 318 317
3 318 338 339
3 339 319 318
3 319 339 340
3 340 320 319
3 320 340 321
3 321 301 320
3 321 341 342
3 342 322 321
3 322 342 343
3 343 323 322
3 323 343 344
3 344 324 323
3 324 344 345
3 345 325 324
3 325 345 346
3 346 326 325
3 326 346 347
3 347 327 326
3 327 347 348
3 348 328 327
3 328 348 349
3 349 329 328
3 329 349 350
3 350 330 329
3 330 350 351
3 351 331 330
3 331 351 352
3 352 332 331
3 332 352 353
3 353 333 332
3 333 353 354
3 354 334 333
3 334 354 355
3 355 335 334
3 335 355 356
3 356 336 335
3 336 356 357
3 357 337 336
3 337 357 358
3 358 338 337
3 338 358 359
3 359 339 338
3 339 359 360
3 360 340 339
3 340 360 341
3 341 321 340
3 341 361 362
3 362 342 341
3 342 362 363
3 363 343 342
3 343 363 364
3 364 344 343
3 344 364 365
3 365 345 344
3 345 365 366
3 366 346 345
3 346 366 367
3 367 347 346
3 347 367 368
3 368 348 347
3 348 368 369
3 369 349 348
3 349 369 370
3 370 350 349
3 350 370 371
3 371 351 350
3 351 371 372
3 372 352 351
3 352 372 373
3 373 353 352
3 353 373 374
3 374 354 353
3 354 374 375
3 375 355 354
3 355 375 376
3 376 356 355
3 356 376 377
3 377 357 356
3 357 377 378
3 378 358 357
3 358 378 379
3 379 359 358
3 359 379 380
3 380 360 359
3 360 380 361
3 361 341 360
3 361 380 381
3 380 379 381
3 379 378 381
3 378 377 381
3 377 376 381
3 376 375 381
3 375 374 381
3 374 373 381
3 373 372 381
3 372 371 381
3 371 370 381
3 370 369 381
3 369 368 381
3 368 367 381
3 367 366 381
3 366 365 381
3 365 364 381
3 364 363 381
3 363 362 381
3 362 361 381
